Results
version=1
nRows=4
nColumns=213
inDegrees=yes
endheader
time	platform_rx	platform_ry	platform_rz	platform_ty	pelvis_tilt	pelvis_list	pelvis_rotation	pelvis_tx	pelvis_ty	pelvis_tz	hip_flexion_r	hip_adduction_r	hip_rotation_r	knee_angle_r	knee_angle_r_beta	ankle_angle_r	subtalar_angle_r	mtp_angle_r	hip_flexion_l	hip_adduction_l	hip_rotation_l	knee_angle_l	knee_angle_l_beta	ankle_angle_l	subtalar_angle_l	mtp_angle_l	lumbar_extension	lumbar_bending	lumbar_rotation	arm_flex_r	arm_add_r	arm_rot_r	elbow_flex_r	pro_sup_r	wrist_flex_r	wrist_dev_r	arm_flex_l	arm_add_l	arm_rot_l	elbow_flex_l	pro_sup_l	wrist_flex_l	wrist_dev_l	platform_rx_u	platform_ry_u	platform_rz_u	platform_ty_u	pelvis_tilt_u	pelvis_list_u	pelvis_rotation_u	pelvis_tx_u	pelvis_ty_u	pelvis_tz_u	hip_flexion_r_u	hip_adduction_r_u	hip_rotation_r_u	knee_angle_r_u	knee_angle_r_beta_u	ankle_angle_r_u	subtalar_angle_r_u	mtp_angle_r_u	hip_flexion_l_u	hip_adduction_l_u	hip_rotation_l_u	knee_angle_l_u	knee_angle_l_beta_u	ankle_angle_l_u	subtalar_angle_l_u	mtp_angle_l_u	lumbar_extension_u	lumbar_bending_u	lumbar_rotation_u	arm_flex_r_u	arm_add_r_u	arm_rot_r_u	elbow_flex_r_u	pro_sup_r_u	wrist_flex_r_u	wrist_dev_r_u	arm_flex_l_u	arm_add_l_u	arm_rot_l_u	elbow_flex_l_u	pro_sup_l_u	wrist_flex_l_u	wrist_dev_l_u	addbrev_r.activation	addlong_r.activation	addlong_r.fiber_length	addmagDist_r.activation	addmagIsch_r.activation	addmagIsch_r.fiber_length	addmagMid_r.activation	addmagProx_r.activation	bflh_r.activation	bflh_r.fiber_length	bfsh_r.activation	edl_r.activation	edl_r.fiber_length	ehl_r.activation	ehl_r.fiber_length	fdl_r.activation	fdl_r.fiber_length	fhl_r.activation	fhl_r.fiber_length	gaslat_r.activation	gaslat_r.fiber_length	gasmed_r.activation	gasmed_r.fiber_length	glmax1_r.activation	glmax2_r.activation	glmax3_r.activation	glmed1_r.activation	glmed2_r.activation	glmed3_r.activation	glmin1_r.activation	glmin2_r.activation	glmin3_r.activation	glmin3_r.fiber_length	grac_r.activation	iliacus_r.activation	perbrev_r.activation	perbrev_r.fiber_length	perlong_r.activation	perlong_r.fiber_length	piri_r.activation	piri_r.fiber_length	psoas_r.activation	recfem_r.activation	recfem_r.fiber_length	sart_r.activation	semimem_r.activation	semimem_r.fiber_length	semiten_r.activation	semiten_r.fiber_length	soleus_r.activation	soleus_r.fiber_length	tfl_r.activation	tfl_r.fiber_length	tibant_r.activation	tibant_r.fiber_length	tibpost_r.activation	tibpost_r.fiber_length	vasint_r.activation	vasint_r.fiber_length	vaslat_r.activation	vaslat_r.fiber_length	vasmed_r.activation	vasmed_r.fiber_length	addbrev_l.activation	addlong_l.activation	addlong_l.fiber_length	addmagDist_l.activation	addmagIsch_l.activation	addmagIsch_l.fiber_length	addmagMid_l.activation	addmagProx_l.activation	bflh_l.activation	bflh_l.fiber_length	bfsh_l.activation	edl_l.activation	edl_l.fiber_length	ehl_l.activation	ehl_l.fiber_length	fdl_l.activation	fdl_l.fiber_length	fhl_l.activation	fhl_l.fiber_length	gaslat_l.activation	gaslat_l.fiber_length	gasmed_l.activation	gasmed_l.fiber_length	glmax1_l.activation	glmax2_l.activation	glmax3_l.activation	glmed1_l.activation	glmed2_l.activation	glmed3_l.activation	glmin1_l.activation	glmin2_l.activation	glmin3_l.activation	glmin3_l.fiber_length	grac_l.activation	iliacus_l.activation	perbrev_l.activation	perbrev_l.fiber_length	perlong_l.activation	perlong_l.fiber_length	piri_l.activation	piri_l.fiber_length	psoas_l.activation	recfem_l.activation	recfem_l.fiber_length	sart_l.activation	semimem_l.activation	semimem_l.fiber_length	semiten_l.activation	semiten_l.fiber_length	soleus_l.activation	soleus_l.fiber_length	tfl_l.activation	tfl_l.fiber_length	tibant_l.activation	tibant_l.fiber_length	tibpost_l.activation	tibpost_l.fiber_length	vasint_l.activation	vasint_l.fiber_length	vaslat_l.activation	vaslat_l.fiber_length	vasmed_l.activation	vasmed_l.fiber_length
      0.00912468	     20.00000000	      0.00000000	     -0.00000000	      0.25000000	    -14.62081082	     -0.00898737	     -0.00752477	      0.06411813	      0.82095300	      0.00003167	     49.20021117	    -13.32006769	    -10.09363868	     56.15442520	     56.15442520	     14.93813084	     -1.19189420	      0.00000000	     49.19801754	    -13.37440799	    -10.06846692	     56.15984803	     56.15984803	     15.19080941	      0.00000000	      0.00000000	     -0.82265851	      0.00823056	      0.00760826	     56.15059587	     -0.00660750	     89.88269396	      0.12695831	      0.10265110	      0.00000000	     -0.00000000	     56.15110949	     -0.00813304	     89.88381418	      0.12788556	      0.10288859	      0.00000000	      0.00000000	     -0.00000000	      0.00000000	      0.00000000	     -0.00000000	    147.45782606	     -1.65049201	     -1.31868338	      0.02935767	      0.20682330	      0.00585815	   -186.83023528	     -0.04644145	    -21.05786762	    -85.40175032	    -85.40175032	  -1038.75459279	   -226.79959058	      0.00000000	   -187.17099639	    -10.09975135	    -16.30580430	    -84.38858941	    -84.38858941	   -992.60682784	      0.00000000	     -0.00000000	   -179.01999619	      1.47101905	      1.36033933	     32.33522298	     -1.41835360	     -0.83724531	      4.29981211	     -0.82320061	      0.00000000	     -0.00000000	     32.44351628	     -1.73990630	     -0.63395462	      4.49509724	     -0.77317975	      0.00000000	      0.00000000	      0.01000000	      0.01000000	      0.09622821	      0.01000000	      0.01000000	      0.17984988	      0.01000000	      0.01000000	      0.01000000	      0.10933492	      0.01000000	      0.01000000	      0.05923761	      0.01000000	      0.06779035	      0.01000000	      0.04713652	      0.01000000	      0.05481189	      0.01000000	      0.06259004	      0.01000000	      0.05393277	      0.01000000	      0.01000000	      0.01000000	      0.01000000	      0.01000000	      0.01000000	      0.01000000	      0.01000000	      0.01000000	      0.04146100	      0.01000000	      0.01000000	      0.01000000	      0.04945915	      0.01000000	      0.05583007	      0.01000000	      0.02579829	      0.01000000	      0.01000000	      0.06645745	      0.01000000	      0.01000000	      0.07319774	      0.01000000	      0.22144146	      0.01000000	      0.05622297	      0.01000000	      0.06395015	      0.01000000	      0.05496814	      0.01000000	      0.04128778	      0.01000000	      0.11922625	      0.01000000	      0.11718154	      0.01000000	      0.11541249	      0.01000000	      0.01000000	      0.09629218	      0.01000000	      0.01000000	      0.17987537	      0.01000000	      0.01000000	      0.01000000	      0.10934283	      0.01000000	      0.01000000	      0.05935557	      0.01000000	      0.06766650	      0.01000000	      0.04701418	      0.01000000	      0.05468512	      0.01000000	      0.06262426	      0.01000000	      0.05399012	      0.01000000	      0.01000000	      0.01000000	      0.01000000	      0.01000000	      0.01000000	      0.01000000	      0.01000000	      0.01000000	      0.04142344	      0.01000000	      0.01000000	      0.01000000	      0.04994101	      0.01000000	      0.05620834	      0.01000000	      0.02577668	      0.01000000	      0.01000000	      0.06645033	      0.01000000	      0.01000000	      0.07320142	      0.01000000	      0.22145376	      0.01000000	      0.05626410	      0.01000000	      0.06389903	      0.01000000	      0.05463742	      0.01000000	      0.04112787	      0.01000000	      0.11922901	      0.01000000	      0.11718413	      0.01000000	      0.11541497
      0.01016236	     20.00000000	      0.00000000	     -0.00000000	      0.25000000	    -14.45915032	     -0.01073728	     -0.00891190	      0.06415102	      0.82117947	      0.00003789	     48.99469276	    -13.32010804	    -10.11686227	     56.05946669	     56.05946669	     13.82166482	     -1.43393009	      0.00000000	     48.99214525	    -13.38512612	    -10.08663976	     56.06595307	     56.06595307	     14.12327003	      0.00000000	      0.00000000	     -1.01877869	      0.00978110	      0.00904609	     56.18593542	     -0.00815874	     89.88177286	      0.13165875	      0.10178370	      0.00000000	     -0.00000000	     56.18656666	     -0.01003342	     89.88311393	      0.13279808	      0.10207550	      0.00000000	      0.00000000	     -0.00000000	      0.00000000	      0.00000000	     -0.00000000	    164.12037356	     -1.71843804	     -1.35199218	      0.03408530	      0.22963815	      0.00612324	   -209.32167506	     -0.02925085	    -23.71196750	    -97.69070310	    -97.69070310	  -1111.60489946	   -239.27036394	      0.00000000	   -209.66338493	    -10.53555786	    -18.74217916	    -96.65930934	    -96.65930934	  -1063.53445751	      0.00000000	     -0.00000000	   -198.96354134	      1.51349185	      1.40841619	     35.77024571	     -1.57128076	     -0.93865944	      4.75893098	     -0.84432037	      0.00000000	     -0.00000000	     35.88856465	     -1.92233939	     -0.71650142	      4.97219959	     -0.78969834	      0.00000000	      0.00000000	      0.01000000	      0.01000000	      0.09630789	      0.01000000	      0.01000000	      0.17965636	      0.01000000	      0.01000000	      0.01000000	      0.10920849	      0.01000000	      0.01000000	      0.05984911	      0.01000000	      0.06852418	      0.01000000	      0.04711887	      0.01000000	      0.05470533	      0.01000000	      0.06209460	      0.01000000	      0.05352928	      0.01000000	      0.01000000	      0.01000000	      0.01000000	      0.01000000	      0.01000000	      0.01000000	      0.01000000	      0.01000000	      0.04141656	      0.01000000	      0.01000000	      0.01000000	      0.04927534	      0.01000000	      0.05562826	      0.01000000	      0.02575114	      0.01000000	      0.01000000	      0.06655337	      0.01000000	      0.01000000	      0.07311300	      0.01000000	      0.22131478	      0.01000000	      0.05576213	      0.01000000	      0.06412766	      0.01000000	      0.05581140	      0.01000000	      0.04124752	      0.01000000	      0.11917560	      0.01000000	      0.11713386	      0.01000000	      0.11536709	      0.01000000	      0.01000000	      0.09638475	      0.01000000	      0.01000000	      0.17968735	      0.01000000	      0.01000000	      0.01000000	      0.10921837	      0.01000000	      0.01000000	      0.05999513	      0.01000000	      0.06837038	      0.01000000	      0.04695524	      0.01000000	      0.05454517	      0.01000000	      0.06213055	      0.01000000	      0.05358097	      0.01000000	      0.01000000	      0.01000000	      0.01000000	      0.01000000	      0.01000000	      0.01000000	      0.01000000	      0.01000000	      0.04137098	      0.01000000	      0.01000000	      0.01000000	      0.04986423	      0.01000000	      0.05609867	      0.01000000	      0.02572418	      0.01000000	      0.01000000	      0.06654443	      0.01000000	      0.01000000	      0.07311771	      0.01000000	      0.22132983	      0.01000000	      0.05581277	      0.01000000	      0.06406499	      0.01000000	      0.05541537	      0.01000000	      0.04103947	      0.01000000	      0.11917899	      0.01000000	      0.11713705	      0.01000000	      0.11537014
      0.01120004	     20.00000000	      0.00000000	      0.00000000	      0.25000000	    -14.28021158	     -0.01254603	     -0.01032318	      0.06418895	      0.82142952	      0.00004435	     48.76571519	    -13.32012525	    -10.14286781	     55.95154738	     55.95154738	     12.63430812	     -1.68755157	      0.00000000	     48.76281416	    -13.39622534	    -10.10740663	     55.95910113	     55.95910113	     12.98651616	      0.00000000	      0.00000000	     -1.23554460	      0.01136360	      0.01052444	     56.22481644	     -0.00986799	     89.88074447	      0.13683306	      0.10090849	      0.00000000	     -0.00000000	     56.22557544	     -0.01212159	     89.88232545	      0.13820262	      0.10125926	      0.00000000	      0.00000000	     -0.00000000	      0.00000000	      0.00000000	     -0.00000000	    180.75706461	     -1.76404990	     -1.36409307	      0.03905369	      0.25226811	      0.00631377	   -232.04049900	     -0.00289822	    -26.41940078	   -110.37146176	   -110.37146176	  -1175.42176658	   -249.12394789	      0.00000000	   -232.37890778	    -10.83394468	    -21.30296579	   -109.34999851	   -109.34999851	  -1126.07592510	      0.00000000	     -0.00000000	   -218.80897918	      1.53280610	      1.43723223	     39.16084159	     -1.72285695	     -1.04417441	      5.21309562	     -0.83774306	      0.00000000	     -0.00000000	     39.28869862	     -2.10190465	     -0.80404735	      5.44344681	     -0.77875827	      0.00000000	     -0.00000000	      0.01000000	      0.01000000	      0.09639753	      0.01000000	      0.01000000	      0.17943960	      0.01000000	      0.01000000	      0.01000000	      0.10906657	      0.01000000	      0.01000000	      0.06050469	      0.01000000	      0.06931193	      0.01000000	      0.04709730	      0.01000000	      0.05458600	      0.01000000	      0.06164145	      0.01000000	      0.05318279	      0.01000000	      0.01000000	      0.01000000	      0.01000000	      0.01000000	      0.01000000	      0.01000000	      0.01000000	      0.01000000	      0.04136661	      0.01000000	      0.01000000	      0.01000000	      0.04907898	      0.01000000	      0.05541008	      0.01000000	      0.02569723	      0.01000000	      0.01000000	      0.06666086	      0.01000000	      0.01000000	      0.07301696	      0.01000000	      0.22117453	      0.01000000	      0.05525760	      0.01000000	      0.06432657	      0.01000000	      0.05671519	      0.01000000	      0.04120046	      0.01000000	      0.11911725	      0.01000000	      0.11707885	      0.01000000	      0.11531486	      0.01000000	      0.01000000	      0.09648962	      0.01000000	      0.01000000	      0.17947631	      0.01000000	      0.01000000	      0.01000000	      0.10907857	      0.01000000	      0.01000000	      0.06068168	      0.01000000	      0.06912487	      0.01000000	      0.04688632	      0.01000000	      0.05439124	      0.01000000	      0.06167311	      0.01000000	      0.05322714	      0.01000000	      0.01000000	      0.01000000	      0.01000000	      0.01000000	      0.01000000	      0.01000000	      0.01000000	      0.01000000	      0.04131268	      0.01000000	      0.01000000	      0.01000000	      0.04977988	      0.01000000	      0.05597764	      0.01000000	      0.02566486	      0.01000000	      0.01000000	      0.06665000	      0.01000000	      0.01000000	      0.07302280	      0.01000000	      0.22119251	      0.01000000	      0.05531847	      0.01000000	      0.06425179	      0.01000000	      0.05624398	      0.01000000	      0.04094009	      0.01000000	      0.11912129	      0.01000000	      0.11708265	      0.01000000	      0.11531847
      0.01204541	     20.00000000	      0.00000000	      0.00000000	      0.25000000	    -14.12168322	     -0.01404752	     -0.01147514	      0.06422374	      0.82165052	      0.00004974	     48.56167240	    -13.32011543	    -10.16614720	     55.85378330	     55.85378330	     11.62103941	     -1.90084395	      0.00000000	     48.55848805	    -13.40545119	    -10.12632969	     55.86219052	     55.86219052	     12.01521804	      0.00000000	     -0.00000000	     -1.42732607	      0.01266042	      0.01174445	     56.25907772	     -0.01137634	     89.87982424	      0.14139521	      0.10021053	      0.00000000	     -0.00000000	     56.25994793	     -0.01395951	     89.88161410	      0.14296508	      0.10061259	      0.00000000	      0.00000000	     -0.00000000	      0.00000000	      0.00000000	     -0.00000000	    194.28676478	     -1.78620197	     -1.35970618	      0.04327075	      0.27055632	      0.00641715	   -250.70903567	      0.02848036	    -28.65961066	   -120.95517515	   -120.95517515	  -1220.79638969	   -255.18964346	      0.00000000	   -251.04044374	    -10.97897748	    -23.47939624	   -119.96002451	   -119.96002451	  -1170.92682006	      0.00000000	     -0.00000000	   -234.89679488	      1.53323866	      1.44776198	     41.88973723	     -1.84552581	     -1.13340499	      5.57955948	     -0.81005379	      0.00000000	     -0.00000000	     42.02487788	     -2.24587881	     -0.87953848	      5.82293436	     -0.74775132	      0.00000000	      0.00000000	      0.01000000	      0.01000000	      0.09647864	      0.01000000	      0.01000000	      0.17924558	      0.01000000	      0.01000000	      0.01000000	      0.10893962	      0.01000000	      0.01000000	      0.06106813	      0.01000000	      0.06998779	      0.01000000	      0.04707649	      0.01000000	      0.05448024	      0.01000000	      0.06132023	      0.01000000	      0.05293559	      0.01000000	      0.01000000	      0.01000000	      0.01000000	      0.01000000	      0.01000000	      0.01000000	      0.01000000	      0.01000000	      0.04132175	      0.01000000	      0.01000000	      0.01000000	      0.04891105	      0.01000000	      0.05522178	      0.01000000	      0.02564851	      0.01000000	      0.01000000	      0.06675665	      0.01000000	      0.01000000	      0.07293068	      0.01000000	      0.22105030	      0.01000000	      0.05481510	      0.01000000	      0.06450436	      0.01000000	      0.05748703	      0.01000000	      0.04115717	      0.01000000	      0.11906383	      0.01000000	      0.11702840	      0.01000000	      0.11526706	      0.01000000	      0.01000000	      0.09657852	      0.01000000	      0.01000000	      0.17928712	      0.01000000	      0.01000000	      0.01000000	      0.10895345	      0.01000000	      0.01000000	      0.06127264	      0.01000000	      0.06977297	      0.01000000	      0.04682309	      0.01000000	      0.05425709	      0.01000000	      0.06134822	      0.01000000	      0.05297516	      0.01000000	      0.01000000	      0.01000000	      0.01000000	      0.01000000	      0.01000000	      0.01000000	      0.01000000	      0.01000000	      0.04126086	      0.01000000	      0.01000000	      0.01000000	      0.04970588	      0.01000000	      0.05587140	      0.01000000	      0.02561178	      0.01000000	      0.01000000	      0.06674415	      0.01000000	      0.01000000	      0.07293750	      0.01000000	      0.22107080	      0.01000000	      0.05488497	      0.01000000	      0.06441941	      0.01000000	      0.05695555	      0.01000000	      0.04085149	      0.01000000	      0.11906839	      0.01000000	      0.11703271	      0.01000000	      0.11527114
